<svg
  width="23"
  height="23"
  viewBox="0 0 23 23"
  fill="none"
  xmlns="http://www.w3.org/2000/svg"
>
  <path
    fill-rule="evenodd"
    clip-rule="evenodd"
    d="M17.625 22.7103H0.963744C0.425616 22.7103 0 22.2857 0 21.7466V5.08532C0 4.54719 0.42468 4.12157 0.963744 4.12157H8.8979C10.1729 4.12157 10.1729 6.07625 8.8979 6.07625H1.95566V20.7537H16.6331V13.8969C16.6331 12.6219 18.5878 12.6219 18.5878 13.8969V21.7456C18.5878 22.2837 18.1631 22.7094 17.624 22.7094L17.625 22.7103ZM17.6813 7.77778L14.9326 5.02906L8.89703 11.0646L8.41516 14.3514L11.702 13.8133L17.6804 7.77774L17.6813 7.77778ZM16.321 3.64066L19.0697 6.38938L20.3447 5.08625L17.624 2.33753L16.321 3.64066ZM6.26159 15.3716L7.02659 10.4694C7.08285 10.2706 7.19628 10.0728 7.33785 9.93126L16.9153 0.297414C17.3118 -0.099138 17.9072 -0.099138 18.3037 0.297414L22.4689 4.40645C22.8374 4.80301 22.8655 5.39833 22.4689 5.76677L12.807 15.4287C12.6655 15.5703 12.4667 15.6556 12.2689 15.7118L7.39473 16.505C7.36661 16.4768 6.06254 16.4487 6.26128 15.3715L6.26159 15.3716Z"
    fill="#D75F8D"
  />
</svg>
