<svg
  width="25"
  height="24"
  viewBox="0 0 25 24"
  fill="none"
  xmlns="http://www.w3.org/2000/svg"
>
  <path
    d="M14.4551 1C14.3835 1 14.3119 1 14.2404 1C13.8348 1.02386 13.4292 1.04772 13.0714 1.23861C12.4988 1.54881 12.1887 2.21692 12.0217 2.86117C11.3537 5.43818 10.3994 7.70499 9.56443 10.2343C9.56443 10.2581 9.56443 10.2581 9.54057 10.282C9.25429 11.1171 8.99187 11.9523 8.70558 12.7636C8.65787 12.8829 8.53859 12.9544 8.51473 12.7874C8.49087 12.5965 8.56244 12.3818 8.5863 12.167C8.61016 11.9284 8.63401 11.7137 8.63401 11.4751C8.65787 11.0217 8.65787 10.5683 8.68173 10.115C8.72944 9.44686 8.80101 8.75488 8.82487 8.08677C8.84872 7.41866 8.84872 6.75054 8.89644 6.08243C8.89644 5.98698 8.9203 5.89154 8.9203 5.7961C8.96801 5.22343 9.03958 4.67462 9.11115 4.12581C9.13501 3.86334 9.15886 3.60087 9.13501 3.33839C9.11115 3.21909 9.11115 3.09978 9.03958 3.0282C8.94415 2.95662 8.82487 2.93276 8.70558 2.93276C8.18073 2.90889 7.63202 2.98048 7.10717 3.12364C6.65389 3.24295 6.22447 3.48156 5.96204 3.91106C5.84276 4.10195 5.77119 4.29284 5.69962 4.50759C5.43719 5.15184 5.24634 5.81996 5.03163 6.46421C4.81691 7.10846 4.6022 7.75271 4.36363 8.39696C4.24435 8.70716 4.14892 8.99349 4.05349 9.30369C3.95807 9.59002 3.86264 9.87636 3.76721 10.1866C3.7195 10.3297 3.69564 10.449 3.67178 10.5922C3.64793 10.7115 3.60021 10.8308 3.52864 10.9501C3.52864 10.974 3.50479 10.974 3.48093 10.9978C3.45707 10.9978 3.43322 10.9978 3.43322 10.9978C3.40936 10.9978 3.40936 10.974 3.40936 10.9501C3.33779 10.5445 3.31393 10.1388 3.31393 9.73319C3.31393 9.47072 3.33779 9.20824 3.33779 8.92191C3.36165 8.22994 3.3855 7.53796 3.40936 6.84599C3.40936 6.82213 3.40936 6.82213 3.40936 6.79826C3.43322 6.2256 3.5525 5.70065 2.86065 5.7961C2.43123 5.84382 2.02566 5.96312 1.62009 6.13015C0.618106 5.98699 1.04753 9.13666 1.04753 9.68547C1.04753 11.2364 1.04753 12.7636 1.04753 14.3145C1.04753 14.9111 1.04753 15.5076 1.30996 16.0325C1.69166 16.82 2.90836 17.2972 3.36165 16.3189C3.52864 15.9371 3.5525 15.5076 3.64793 15.102C3.74336 14.6725 3.86264 14.2191 3.98192 13.7896C4.22049 12.9306 4.50677 12.0716 4.79306 11.2126C4.86463 10.9978 4.9362 10.7592 5.03163 10.5445C5.19862 10.0911 5.36562 9.63774 5.50876 9.18438C5.69962 8.61171 5.91433 8.06291 6.10519 7.49024C6.17676 7.49024 6.20061 7.58568 6.20061 7.65727C6.20061 9.47072 6.20061 11.308 6.20061 13.1215C6.20061 14.0759 6.20061 15.0304 6.20061 15.9848C6.20061 16.6529 6.20061 17.321 6.20061 17.9892C6.20061 18.1562 6.20061 18.3471 6.24833 18.5141C6.34375 18.8004 6.60618 18.9675 6.86861 19.0629C7.15489 19.1822 7.56045 19.2777 7.89445 19.2538C8.06145 19.2538 8.22845 19.1822 8.32387 19.039C8.37159 18.9675 8.39544 18.8482 8.4193 18.7527C8.68173 17.4642 8.94415 16.1996 9.30201 14.9349C9.65986 13.6703 10.1609 12.4534 10.6141 11.2126C10.7334 10.8785 10.8766 10.5206 10.9958 10.1627C11.4253 8.96963 11.7831 7.72885 12.2603 6.55965C12.2841 6.48807 12.308 6.41649 12.3795 6.39263C12.4511 6.7744 12.3795 7.22777 12.3795 7.60955C12.3795 8.03905 12.3557 8.44469 12.3557 8.87419C12.3318 9.70933 12.308 10.5445 12.2841 11.3796C12.2125 13.0499 12.141 14.7202 12.1171 16.3905C12.0933 17.4642 12.0933 18.5618 12.0933 19.6356C12.1171 20.4707 11.9501 21.6876 12.5227 22.4035C12.8567 22.833 13.4054 23 13.9541 23.0239C14.0495 23.0239 14.1688 23.0239 14.2642 22.9761C14.4312 22.8807 14.4551 22.6659 14.4551 22.4751C14.4551 19.1822 14.6698 15.8894 14.7652 12.5965C14.8607 9.27983 14.9799 5.96312 15.0754 2.64642C15.0754 2.33623 15.0992 2.04989 15.0992 1.7397C15.0992 1.57267 15.0992 1.40564 15.0277 1.26247C14.9322 1.07158 14.6937 1 14.4551 1ZM11.306 5.34273C11.306 5.34273 11.2821 5.34273 11.306 5.34273C11.2821 5.34273 11.2821 5.34273 11.306 5.34273C11.2821 5.34273 11.306 5.34273 11.306 5.34273Z"
    fill="#FF00F5"
  />
  <path
    d="M24.9763 12.6203C25.0479 11.9522 24.9525 11.475 24.3322 11.1887C24.2129 11.1409 24.0698 11.0694 23.9266 11.0455C23.7835 11.0216 23.6403 11.0694 23.5449 11.1887C23.4495 11.308 23.4495 11.4989 23.4495 11.6659C23.4733 12.2147 23.3779 12.7396 23.2586 13.2646C23.1155 14.0043 22.9485 14.7678 22.6145 15.4598C22.3044 16.1518 21.8034 16.796 21.1354 17.1539C20.7775 17.3448 20.3481 17.4641 19.9425 17.3926C19.4654 17.2971 19.0598 16.9392 18.7974 16.5097C18.6304 16.2472 18.535 15.937 18.4395 15.6507C18.3203 15.2451 18.2487 15.0542 18.6065 14.7678C19.3461 14.1713 19.9664 13.4077 20.3719 12.5249C21.0638 11.0694 21.3024 9.47065 20.5867 7.9674C20.5151 7.82423 20.4435 7.68107 20.3481 7.56176C19.9425 7.06068 19.2984 6.96523 18.702 7.13226C17.6523 7.39473 16.8411 8.30146 16.4594 9.32749C16.1016 10.2581 16.0539 11.2841 16.0777 12.2624C16.1016 12.8589 16.1493 13.4555 16.2686 14.0281C16.3163 14.2429 16.3401 14.4576 16.4117 14.6724C16.4356 14.7917 16.4594 14.8871 16.5071 15.0064C16.531 15.1019 16.5787 15.1973 16.5787 15.2928C16.5787 15.4837 16.3879 15.5791 16.2686 15.6746C16.1493 15.7461 15.9346 15.8654 15.9346 16.0086C15.9346 16.0563 16.03 16.1756 16.0777 16.2234C16.2209 16.3427 16.4356 16.1041 16.5548 16.0325C16.6026 16.0086 16.6264 15.9848 16.6741 15.9609C16.7696 15.9132 16.865 15.9609 16.9127 16.0563C16.9604 16.1518 17.0081 16.2711 17.0558 16.3665C17.1274 16.462 17.1751 16.5574 17.2467 16.6529C17.3898 16.8438 17.5568 17.0108 17.7238 17.1778C18.034 17.488 18.368 17.7743 18.7497 17.9414C19.0121 18.0607 19.2984 18.1084 19.5847 18.1323C21.1115 18.2516 22.5429 17.3926 23.4972 16.2472C24.2368 15.3405 24.7139 14.2429 24.9286 13.0976C24.9286 12.9782 24.9525 12.8112 24.9763 12.6203ZM19.6801 8.37304C20.0618 9.04115 20.0857 9.85243 20.0141 10.5921C19.8471 11.9761 19.2984 13.36 18.2487 14.2667C18.2248 14.2906 18.1771 14.3145 18.1533 14.3145C18.1294 14.2906 18.1055 14.2667 18.1055 14.219C18.0101 13.5986 18.034 12.9067 18.034 12.2863C18.034 11.642 18.0817 10.9739 18.2248 10.3297C18.3203 9.85243 18.4634 9.35135 18.702 8.92185C18.8212 8.7071 19.203 8.01512 19.537 8.20601C19.5847 8.22987 19.6324 8.30146 19.6801 8.37304Z"
    fill="#FF00F5"
  />
  <path
    d="M13.8351 17.3211C13.8113 17.3211 13.8113 17.3211 13.7874 17.3211C13.6443 17.3211 13.5488 17.2018 13.5488 17.0586C13.5488 16.9155 13.6681 16.82 13.8113 16.82C13.9783 16.82 14.1452 16.7723 14.36 16.7007C15.0041 16.4621 16.1731 15.7701 16.7218 15.3645C16.8411 15.2929 16.9842 15.3168 17.0558 15.4361C17.1274 15.5554 17.1035 15.6985 16.9842 15.7701C16.3878 16.1996 15.195 16.9155 14.5031 17.1541C14.3122 17.2495 14.0737 17.3211 13.8351 17.3211Z"
    fill="#FF00F5"
  />
</svg>
