<svg
  width="24"
  height="24"
  viewBox="0 0 24 24"
  fill="none"
  xmlns="http://www.w3.org/2000/svg"
>
  <path
    fill-rule="evenodd"
    clip-rule="evenodd"
    d="M21.2576 7.38534H16.6143V2.74202C16.6143 2.22242 16.1935 1.7998 15.672 1.7998H8.32756C7.80771 1.7998 7.38534 2.22217 7.38534 2.74202V7.38534H2.74202C2.22217 7.38534 1.7998 7.80771 1.7998 8.32756V15.672C1.7998 16.1919 2.22217 16.6143 2.74202 16.6143H7.38534V21.2576C7.38534 21.7774 7.80771 22.1998 8.32756 22.1998H15.672C16.1935 22.1998 16.6143 21.7772 16.6143 21.2576V16.6143H21.2576C21.7791 16.6143 22.1998 16.1917 22.1998 15.672V8.32756C22.1998 7.80796 21.7791 7.38534 21.2576 7.38534ZM20.3154 14.7298H15.672C15.1522 14.7298 14.7298 15.1522 14.7298 15.672V20.3154H9.26978V15.672C9.26978 15.1522 8.84742 14.7298 8.32756 14.7298H3.68424V9.26978H8.32756C8.84742 9.26978 9.26978 8.84742 9.26978 8.32756V3.68424H14.7298V8.32756C14.7298 8.84742 15.1522 9.26978 15.672 9.26978H20.3154V14.7298Z"
    fill="#DBDBDB"
  />
</svg>
