<svg
  width="24"
  height="24"
  viewBox="0 0 24 24"
  fill="none"
  xmlns="http://www.w3.org/2000/svg"
>
  <path
    d="M14.6983 8.49935V6.69961C14.6983 5.2092 13.4891 4 11.9987 4H5.69961C4.2092 4 3 5.2092 3 6.69961V17.498C3 18.9885 4.2092 20.1977 5.69961 20.1977H11.9987C13.4891 20.1977 14.6983 18.9885 14.6983 17.498V15.6983C14.6983 15.2027 14.2941 14.7984 13.7984 14.7984C13.3028 14.7984 12.8986 15.2027 12.8986 15.6983V17.498C12.8986 17.9937 12.4943 18.3979 11.9987 18.3979H5.69961C5.20398 18.3979 4.79974 17.9937 4.79974 17.498V6.69961C4.79974 6.20398 5.20398 5.79974 5.69961 5.79974H11.9987C12.4943 5.79974 12.8986 6.20398 12.8986 6.69961V8.49935C12.8986 8.99498 13.3028 9.39922 13.7984 9.39922C14.2941 9.39922 14.6983 8.99498 14.6983 8.49935Z"
    fill="#262626"
  />
  <path
    d="M7.4994 12.9984H20.0976C20.4632 12.9984 20.7901 12.7804 20.9307 12.443C21.0713 12.1055 20.9939 11.7189 20.7373 11.4623L18.0377 8.76266C17.6862 8.41115 17.1168 8.41115 16.7653 8.76266C16.4137 9.11417 16.4137 9.68362 16.7653 10.0351L17.9288 11.1986H7.50292C7.00729 11.1986 6.60305 11.6029 6.60305 12.0985C6.59953 12.5941 7.00377 12.9984 7.4994 12.9984ZM18.0342 15.4343L20.7338 12.7347C21.0853 12.3832 21.0853 11.8138 20.7338 11.4623C20.3823 11.1108 19.8129 11.1108 19.4613 11.4623L16.7617 14.1619C16.4102 14.5134 16.4102 15.0828 16.7617 15.4343C17.1133 15.7859 17.6827 15.7859 18.0342 15.4343Z"
    fill="#262626"
  />
</svg>
