<svg
  width="40"
  height="40"
  viewBox="0 0 40 40"
  fill="none"
  xmlns="http://www.w3.org/2000/svg"
>
  <path
    fill-rule="evenodd"
    clip-rule="evenodd"
    d="M6.66663 13.3334C6.66663 12.4129 7.41282 11.6667 8.33329 11.6667H31.6666C32.5871 11.6667 33.3333 12.4129 33.3333 13.3334C33.3333 14.2539 32.5871 15.0001 31.6666 15.0001H8.33329C7.41282 15.0001 6.66663 14.2539 6.66663 13.3334Z"
    fill="#D75F8D"
  />
  <path
    fill-rule="evenodd"
    clip-rule="evenodd"
    d="M6.66663 19.9999C6.66663 19.0794 7.41282 18.3333 8.33329 18.3333H25C25.9204 18.3333 26.6666 19.0794 26.6666 19.9999C26.6666 20.9204 25.9204 21.6666 25 21.6666H8.33329C7.41282 21.6666 6.66663 20.9204 6.66663 19.9999Z"
    fill="#D75F8D"
  />
  <path
    fill-rule="evenodd"
    clip-rule="evenodd"
    d="M6.66663 26.6667C6.66663 25.7462 7.41282 25 8.33329 25H16.6666C17.5871 25 18.3333 25.7462 18.3333 26.6667C18.3333 27.5871 17.5871 28.3333 16.6666 28.3333H8.33329C7.41282 28.3333 6.66663 27.5871 6.66663 26.6667Z"
    fill="#D75F8D"
  />
</svg>
