<svg
  width="19"
  height="19"
  viewBox="0 0 19 19"
  fill="none"
  xmlns="http://www.w3.org/2000/svg"
>
  <path
    d="M18.4897 17.0315L13.0737 11.6145C13.9067 10.5208 14.3755 9.1145 14.3755 7.60375C14.3755 3.85375 11.355 0.833252 7.605 0.833252C3.855 0.833252 0.833496 3.85475 0.833496 7.60475C0.833496 11.3548 3.854 14.3753 7.604 14.3753C9.11475 14.3753 10.4682 13.9065 11.6147 13.0735L17.0317 18.4905C17.2398 18.6985 17.5005 18.803 17.7612 18.803C18.022 18.803 18.2817 18.6985 18.4907 18.4905C18.9068 18.0735 18.9068 17.4485 18.4898 17.0315L18.4897 17.0315ZM7.605 12.2923C5.0005 12.2923 2.9175 10.2093 2.9175 7.60475C2.9175 5.00025 5.0005 2.91725 7.605 2.91725C10.2095 2.91725 12.2925 5.00025 12.2925 7.60475C12.2925 10.2083 10.2085 12.2923 7.605 12.2923Z"
    fill="black"
  />
</svg>
