<svg
  width="24"
  height="24"
  viewBox="0 0 24 24"
  fill="none"
  xmlns="http://www.w3.org/2000/svg"
>
  <path
    fill-rule="evenodd"
    clip-rule="evenodd"
    d="M18.5 2H5.5C4.39543 2 3.5 2.89543 3.5 4V20C3.5 21.1046 4.39543 22 5.5 22H14V19C14 16.7909 15.7909 15 18 15H20.5V4C20.5 2.89543 19.6046 2 18.5 2ZM16.5296 21.2844C16.3786 21.4647 16.1989 21.6148 16 21.7301V19C16 17.8954 16.8954 17 18 17H20.1137C20.088 17.0351 20.0611 17.0694 20.033 17.103L16.5296 21.2844ZM5.5 0C3.29086 0 1.5 1.79086 1.5 4V20C1.5 22.2091 3.29086 24 5.5 24H14.9966C16.18 24 17.3027 23.476 18.0627 22.5689L21.5661 18.3874C22.1694 17.6673 22.5 16.7579 22.5 15.8185V4C22.5 1.79086 20.7091 0 18.5 0H5.5ZM8 8C7.44772 8 7 8.44771 7 9C7 9.55229 7.44772 10 8 10H16C16.5523 10 17 9.55229 17 9C17 8.44771 16.5523 8 16 8H8ZM7 12C7 11.4477 7.44772 11 8 11H16C16.5523 11 17 11.4477 17 12C17 12.5523 16.5523 13 16 13H8C7.44772 13 7 12.5523 7 12ZM8 14C7.44772 14 7 14.4477 7 15C7 15.5523 7.44772 16 8 16H11C11.5523 16 12 15.5523 12 15C12 14.4477 11.5523 14 11 14H8Z"
    fill="#DBDBDB"
  />
</svg>
