<svg
  width="24"
  height="24"
  viewBox="0 0 24 24"
  fill="none"
  xmlns="http://www.w3.org/2000/svg"
>
  <path
    fill-rule="evenodd"
    clip-rule="evenodd"
    d="M9.5 12C10.6046 12 11.5 11.1046 11.5 10C11.5 8.89543 10.6046 8 9.5 8C8.39543 8 7.5 8.89543 7.5 10C7.5 11.1046 8.39543 12 9.5 12ZM9.5 14C11.7091 14 13.5 12.2091 13.5 10C13.5 7.79086 11.7091 6 9.5 6C7.29086 6 5.5 7.79086 5.5 10C5.5 12.2091 7.29086 14 9.5 14Z"
    fill="#DBDBDB"
  />
  <path
    fill-rule="evenodd"
    clip-rule="evenodd"
    d="M19.0001 3C19.5524 3 20.0001 3.44772 20.0001 4V4.17071C20.3512 4.2948 20.6723 4.4824 20.9496 4.7197L21.0982 4.63392C21.5765 4.35777 22.1881 4.52165 22.4642 4.99994C22.7403 5.47823 22.5765 6.08982 22.0982 6.36597L21.9501 6.45148C21.9829 6.62931 22.0001 6.81265 22.0001 7C22.0001 7.18731 21.9829 7.37061 21.9501 7.54842L22.0982 7.63392C22.5765 7.91006 22.7403 8.52165 22.4642 8.99994C22.1881 9.47823 21.5765 9.64211 21.0982 9.36597L20.9497 9.28023C20.6724 9.51756 20.3512 9.70519 20.0001 9.82929V10C20.0001 10.5523 19.5524 11 19.0001 11C18.4478 11 18.0001 10.5523 18.0001 10V9.8293C17.649 9.70519 17.3278 9.51757 17.0505 9.28023L16.902 9.36597C16.4237 9.64211 15.8121 9.47823 15.536 8.99994C15.2599 8.52165 15.4237 7.91006 15.902 7.63392L16.0501 7.54842C16.0173 7.37061 16.0001 7.18731 16.0001 7C16.0001 6.81265 16.0173 6.62931 16.0501 6.45148L15.902 6.36597C15.4237 6.08982 15.2599 5.47823 15.536 4.99994C15.8121 4.52165 16.4237 4.35777 16.902 4.63392L17.0506 4.7197C17.3279 4.4824 17.649 4.2948 18.0001 4.17071V4C18.0001 3.44772 18.4478 3 19.0001 3ZM19.0001 8C19.5524 8 20.0001 7.55228 20.0001 7C20.0001 6.44772 19.5524 6 19.0001 6C18.4478 6 18.0001 6.44772 18.0001 7C18.0001 7.55228 18.4478 8 19.0001 8Z"
    fill="#DBDBDB"
  />
  <path
    fill-rule="evenodd"
    clip-rule="evenodd"
    d="M3.98034 21.1971L3.9797 21.2002L3.98009 21.1984L3.98564 21.1742C3.99147 21.1495 4.00166 21.1085 4.01698 21.0535C4.04769 20.9433 4.09864 20.7782 4.17588 20.5767C4.33133 20.1712 4.58747 19.6333 4.98745 19.1C5.76554 18.0626 7.11074 17 9.49995 17C11.8892 17 13.2344 18.0626 14.0124 19.1C14.4124 19.6333 14.6686 20.1712 14.824 20.5767C14.9013 20.7782 14.9522 20.9433 14.9829 21.0535C14.9982 21.1085 15.0084 21.1495 15.0143 21.1742L15.0198 21.1984L15.0202 21.2003C15.1304 21.7395 15.6559 22.0886 16.1961 21.9806C16.7376 21.8723 17.0888 21.3454 16.9805 20.8039L16.9803 20.8028L16.9801 20.8016L16.9795 20.7989L16.9781 20.792L16.974 20.7729C16.9707 20.7577 16.9662 20.7379 16.9605 20.7135C16.949 20.6649 16.9323 20.5985 16.9096 20.5168C16.8641 20.3536 16.794 20.1281 16.6915 19.8608C16.4876 19.3288 16.15 18.6167 15.6124 17.9C14.5155 16.4374 12.6107 15 9.49995 15C6.38916 15 4.48436 16.4374 3.38745 17.9C2.84993 18.6167 2.51232 19.3288 2.30839 19.8608C2.20594 20.1281 2.1358 20.3536 2.09034 20.5168C2.06758 20.5985 2.05091 20.6649 2.0394 20.7135C2.03365 20.7379 2.02918 20.7577 2.02588 20.7729L2.02179 20.792L2.02038 20.7989L2.01982 20.8016L2.01958 20.8028L2.02038 20.7989L2.01937 20.8039C1.91106 21.3454 2.26227 21.8723 2.80383 21.9806C3.34401 22.0886 3.86953 21.7394 3.9797 21.2002M3.98034 21.1971L3.98009 21.1984L3.98034 21.1971Z"
    fill="#DBDBDB"
  />
</svg>
