<svg
  width="24"
  height="24"
  viewBox="0 0 24 24"
  fill="none"
  xmlns="http://www.w3.org/2000/svg"
>
  <path
    fill-rule="evenodd"
    clip-rule="evenodd"
    d="M8.49995 11C9.60452 11 10.5 10.1046 10.5 9C10.5 7.89543 9.60452 7 8.49995 7C7.39538 7 6.49995 7.89543 6.49995 9C6.49995 10.1046 7.39538 11 8.49995 11ZM8.49995 13C10.7091 13 12.5 11.2091 12.5 9C12.5 6.79086 10.7091 5 8.49995 5C6.29082 5 4.49995 6.79086 4.49995 9C4.49995 11.2091 6.29082 13 8.49995 13Z"
    fill="#DBDBDB"
  />
  <path
    fill-rule="evenodd"
    clip-rule="evenodd"
    d="M17.5 8C18.3284 8 19 7.32843 19 6.5C19 5.67157 18.3284 5 17.5 5C16.6715 5 16 5.67157 16 6.5C16 7.32843 16.6715 8 17.5 8ZM17.5 10C19.433 10 21 8.433 21 6.5C21 4.567 19.433 3 17.5 3C15.567 3 14 4.567 14 6.5C14 8.433 15.567 10 17.5 10Z"
    fill="#DBDBDB"
  />
  <path
    fill-rule="evenodd"
    clip-rule="evenodd"
    d="M2.98034 20.1971L2.9797 20.2002L2.98009 20.1984L2.98564 20.1742C2.99147 20.1495 3.00166 20.1085 3.01698 20.0535C3.04769 19.9433 3.09864 19.7782 3.17588 19.5767C3.33133 19.1712 3.58747 18.6333 3.98745 18.1C4.76554 17.0626 6.11074 16 8.49995 16C10.8892 16 12.2344 17.0626 13.0124 18.1C13.4124 18.6333 13.6686 19.1712 13.824 19.5767C13.9013 19.7782 13.9522 19.9433 13.9829 20.0535C13.9982 20.1085 14.0084 20.1495 14.0143 20.1742L14.0198 20.1984L14.0202 20.2003C14.1304 20.7395 14.6559 21.0886 15.1961 20.9806C15.7376 20.8723 16.0888 20.3454 15.9805 19.8039L15.9781 19.792C15.974 19.7729 15.9803 19.8028 15.9803 19.8028L15.9801 19.8016L15.9795 19.7989L15.9781 19.792L15.974 19.7729C15.9707 19.7577 15.9662 19.7379 15.9605 19.7135C15.949 19.6649 15.9323 19.5985 15.9096 19.5168C15.8641 19.3536 15.794 19.1281 15.6915 18.8608C15.4876 18.3288 15.15 17.6167 14.6124 16.9C13.5155 15.4374 11.6107 14 8.49995 14C5.38916 14 3.48436 15.4374 2.38745 16.9C1.84993 17.6167 1.51232 18.3288 1.30839 18.8608C1.20594 19.1281 1.1358 19.3536 1.09034 19.5168C1.06758 19.5985 1.05091 19.6649 1.0394 19.7135C1.03365 19.7379 1.02918 19.7577 1.02588 19.7729L1.02179 19.792L1.02038 19.7989L1.01982 19.8016L1.01958 19.8028L1.02038 19.7989L1.01937 19.8039C0.911056 20.3454 1.26227 20.8723 1.80383 20.9806C2.34401 21.0886 2.86953 20.7394 2.9797 20.2002M2.98034 20.1971L2.98009 20.1984L2.98034 20.1971Z"
    fill="#DBDBDB"
  />
  <path
    fill-rule="evenodd"
    clip-rule="evenodd"
    d="M17.1499 13C15.9817 13 15.1107 13.2498 14.4596 13.5868C13.9691 13.8406 13.3657 13.6488 13.1119 13.1583C12.858 12.6678 13.0498 12.0644 13.5403 11.8106C14.495 11.3164 15.6845 11 17.1499 11C19.9383 11 21.6742 12.1447 22.6955 13.3551C23.194 13.946 23.5089 14.5353 23.7002 14.979C23.7963 15.2017 23.8625 15.3907 23.9058 15.5291C23.9276 15.5984 23.9437 15.6553 23.955 15.6978C23.9606 15.7191 23.9651 15.7367 23.9685 15.7506L23.9728 15.7685L23.9744 15.7752L23.975 15.7781L23.9753 15.7793L23.9756 15.7805C24.0968 16.3193 23.7583 16.8544 23.2195 16.9756C22.6829 17.0963 22.15 16.7611 22.0259 16.2262L22.0223 16.2124C22.018 16.1963 22.0099 16.1673 21.9974 16.1272C21.9722 16.0468 21.9294 15.9233 21.8637 15.771C21.7316 15.4647 21.5121 15.054 21.1669 14.6449C20.5007 13.8553 19.3115 13 17.1499 13Z"
    fill="#DBDBDB"
  />
</svg>
